<svg xmlns="http://www.w3.org/2000/svg" version="1.1" xmlns:xlink="http://www.w3.org/1999/xlink" width="1500" height="147" viewBox="0 0 1500 147"><svg xml:space="preserve" width="1500" height="147" data-version="2" data-id="lg_qatAlKz9bs2d9wKzUi" viewBox="0 0 808 147" x="0" y="0"><rect width="100%" height="100%" fill="transparent"></rect><path fill="#5f6fff" d="M176.794 116.224h-15.41q-.53 0-.53-.66l.27-93.44q0-.53.53-.53h16.6q.53 0 .93.53l12.42 17.93 12.35-17.93q.4-.53.99-.53h16.67q.6 0 .6.53l.27 93.44q0 .66-.54.66h-15.4q-.53 0-.53-.66l-.14-69.4-14.27 20.72-14.15-20.72-.13 69.4q0 .66-.53.66m101.53 0h-43.96q-.53 0-.53-.66l.13-93.44q0-.53.54-.53h43.69q.53 0 .53.66v15.21q0 .53-.53.53h-27.89v21.25h27.89q.53 0 .53.53l.13 15.41q0 .53-.53.53h-28.02v23.77h28.02q.53 0 .53.67v15.54q0 .53-.53.53m37.66-.13-24.38.13q-.66 0-.66-.66l.27-93.44q0-.53.53-.53l25.43-.13q7.57-.2 13.68 3.45 6.18 3.65 9.86 9.86 3.69 6.21 3.69 13.71v39.05q0 7.84-3.79 14.35-3.85 6.44-10.22 10.26-6.38 3.81-14.41 3.95m1.19-78.36-9.5.13-.13 61.62h8.44q5.04 0 8.5-3.51 3.45-3.52 3.45-8.44v-39.18q0-4.31-3.19-7.54-3.19-3.22-7.57-3.08m53.99 78.49h-15.41q-.66 0-.66-.66l.13-93.44q0-.53.53-.53h15.28q.53 0 .53.53l.13 93.44q0 .66-.53.66m7.9-.66 16.87-93.44q.13-.53.66-.53h19.73q.53 0 .66.53l16.2 93.44q.07.66-.53.66h-15.07q-.67 0-.73-.66l-1.46-9.97h-18.53l-1.46 9.97q-.07.66-.67.66h-15.14q-.53 0-.53-.66m33.6-24.51-5.57-38.18-.8-5.05-.6 5.05-6.11 38.18zm44.96 25.17h-15.41q-.53 0-.53-.66l.27-93.44q0-.53.53-.53h27.49q7.37 0 13.55 3.59 6.17 3.58 9.86 9.63 3.69 6.04 3.69 13.67 0 4.99-1.53 9.04-1.53 4.05-3.55 6.84-2.03 2.78-3.69 4.11 7.37 8.17 7.37 19.19l.13 27.9q0 .66-.66.66h-15.41q-.53 0-.53-.4v-28.16q0-4.91-3.45-8.5-3.45-3.58-8.5-3.58h-8.97l-.13 39.98q0 .66-.53.66m12.35-78.36h-11.69v21.38h11.69q4.19 0 7.47-3.12 3.29-3.12 3.29-7.64 0-4.31-3.19-7.47-3.19-3.15-7.57-3.15m53.19 78.36h-15.4q-.53 0-.53-.66l.26-93.44q0-.53.53-.53h27.49q7.38 0 13.55 3.59 6.18 3.58 9.86 9.63 3.69 6.04 3.69 13.67 0 4.99-1.53 9.04-1.53 4.05-3.55 6.84-2.03 2.78-3.69 4.11 7.37 8.17 7.37 19.19l.14 27.9q0 .66-.67.66h-15.4q-.53 0-.53-.4v-28.16q0-4.91-3.46-8.5-3.45-3.58-8.5-3.58h-8.96l-.14 39.98q0 .66-.53.66m12.35-78.36h-11.68v21.38h11.68q4.19 0 7.48-3.12 3.28-3.12 3.28-7.64 0-4.31-3.18-7.47-3.19-3.15-7.58-3.15m32.68 77.7 16.86-93.44q.14-.53.67-.53h19.72q.53 0 .66.53l16.21 93.44q.06.66-.53.66h-15.08q-.66 0-.73-.66l-1.46-9.97h-18.53l-1.46 9.97q-.06.66-.66.66h-15.14q-.53 0-.53-.66m33.6-24.51-5.58-38.18-.8-5.05-.59 5.05-6.11 38.18zm43.83 25.17h-13.62q-1.06 0-1.06-.93l-.13-92.64q0-1.06 1.06-1.06h12.29l22.97 53.59-.66-52.53q0-1.06 1.19-1.06h13.48q.8 0 .8 1.06l.13 92.77q0 .8-.66.8h-11.95l-23.58-50.07 1 49.01q0 1.06-1.26 1.06m73.18 1.33q-7.38 0-13.29-3.66-5.97-3.65-9.59-9.82-3.62-6.18-3.62-13.82v-43.09q0-7.44 3.65-13.55 3.59-6.18 9.63-9.86 6.04-3.69 13.22-3.69 7.5 0 13.54 3.59 6.05 3.65 9.6 9.76 3.55 6.11 3.55 13.75v6.24q0 .53-.66.53h-15.28q-.53 0-.53-.53v-5.18q0-5.18-2.92-8.57-2.92-3.38-7.3-3.38-3.92 0-6.98 3.25-3.05 3.25-3.05 7.64v43.09q0 4.45 2.99 7.67 2.99 3.22 7.04 3.22 4.38 0 7.3-3.15t2.92-7.74v-6.7h-9.49q-.73 0-.73-.67v-15.2q0-.67.73-.67h25.43q.53 0 .53.67v22.57q0 7.64-3.58 13.82-3.66 6.17-9.63 9.82-5.98 3.66-13.48 3.66m80.75-1.33h-43.96q-.54 0-.54-.66l.14-93.44q0-.53.53-.53h43.69q.53 0 .53.66v15.21q0 .53-.53.53h-27.89v21.25h27.89q.53 0 .53.53l.14 15.41q0 .53-.53.53h-28.03v23.77h28.03q.53 0 .53.67v15.54q0 .53-.53.53"></path><circle r="68.759" fill="#fff" stroke="#5f6fff" stroke-width="6" paint-order="stroke" transform="translate(79.674 73.5)"></circle><path fill="#5f6fff" d="M106.797 51.39c17.348 15.116 23.475 37.363-10.759 57.025q7.212-8.996 8.072-17.883c1.257-12.823-7.41-23.246-16.99-32.608C73.104 44.198 72.06 30.96 83.836 16.26c-2.421 19.333 10.838 24.575 22.96 35.131M69.122 122.24c8.178-15.92 9.62-24.746-10.85-42.592A67.488 62.169 0 0 1 45.435 64.91c-3.824 7.85-6.841 24.478 4.274 34.059 7.543 6.46 17.865 10.361 19.413 23.27m15.112-61.803C72.947 49.367 64.77 33.885 80.648 14.09c-43.007 15.481-45.482 40.385-19.65 62.9 21.767 18.968 20.643 29.44 11.71 46.81 42.187-28.647 27.393-47.834 11.513-63.376"></path></svg></svg>